<?xml version="1.0" encoding="UTF-8" standalone="no"?>
<!-- Created with Inkscape (http://www.inkscape.org/) -->

<svg xmlns:dc="http://purl.org/dc/elements/1.1/" xmlns:cc="http://creativecommons.org/ns#" xmlns:rdf="http://www.w3.org/1999/02/22-rdf-syntax-ns#" xmlns:svg="http://www.w3.org/2000/svg" xmlns="http://www.w3.org/2000/svg" xmlns:sodipodi="http://sodipodi.sourceforge.net/DTD/sodipodi-0.dtd" xmlns:inkscape="http://www.inkscape.org/namespaces/inkscape" width="620.80823" height="234.20052" id="svg3356" version="1.1" inkscape:version="0.48.1 " sodipodi:docname="Nouveau document 4">
  <defs id="defs3358">
    <clipPath clipPathUnits="userSpaceOnUse" id="clipPath3093">
      <path inkscape:connector-curvature="0" d="M -1.55,596.6021 487.249,596.6021 487.249,713.6611 -1.55,713.6611 -1.55,596.6021 z" id="path3095" />
    </clipPath>
    <clipPath clipPathUnits="userSpaceOnUse" id="clipPath3103">
      <path inkscape:connector-curvature="0" d="M 439.827,22.82703 921.71704,22.82703 921.71704,731.48804 439.827,731.48804 439.827,22.82703 z" id="path3105" />
    </clipPath>
    <clipPath clipPathUnits="userSpaceOnUse" id="clipPath3113">
      <path inkscape:connector-curvature="0" d="M 0,2386.4082 1928,2386.4082 1928,2835 0,2835 0,2386.4082 z" id="path3115" />
    </clipPath>
    <clipPath clipPathUnits="userSpaceOnUse" id="clipPath3123">
      <path inkscape:connector-curvature="0" d="M -1.27762,-12.27569 2.27484,-12.27569 2.27484,1.5722 -1.27762,1.5722 -1.27762,-12.27569 z" id="path3125" />
    </clipPath>
    <clipPath clipPathUnits="userSpaceOnUse" id="clipPath3133">
      <path inkscape:connector-curvature="0" d="M 0,2386.4082 1928,2386.4082 1928,2835 0,2835 0,2386.4082 z" id="path3135" />
    </clipPath>
    <clipPath clipPathUnits="userSpaceOnUse" id="clipPath3141">
      <path inkscape:connector-curvature="0" d="M 693.236,2717.5146 693.236,2512.8162 1235.8336,2512.8162 1235.8336,2717.5146" id="path3143" />
    </clipPath>
  </defs>
  <sodipodi:namedview inkscape:document-units="mm" pagecolor="#ffffff" bordercolor="#666666" borderopacity="1.0" inkscape:pageopacity="0.0" inkscape:pageshadow="2" inkscape:zoom="0.87679638" inkscape:cx="532.53466" inkscape:cy="174.08617" inkscape:current-layer="layer1" id="namedview3360" showgrid="false" units="cm" fit-margin-top="0" fit-margin-left="0" fit-margin-right="0" fit-margin-bottom="0" inkscape:window-width="1366" inkscape:window-height="716" inkscape:window-x="-8" inkscape:window-y="-8" inkscape:window-maximized="1" />
  <metadata id="metadata3362">
    <rdf:RDF>
      <cc:Work rdf:about="">
        <dc:format>image/svg+xml</dc:format>
        <dc:type rdf:resource="http://purl.org/dc/dcmitype/StillImage" />
        <dc:title></dc:title>
      </cc:Work>
    </rdf:RDF>
  </metadata>
  <g inkscape:label="Layer 1" inkscape:groupmode="layer" id="layer1" transform="translate(-678.57007,-375.71211)">
    <g transform="matrix(4.5765307,0,0,-4.5765307,-114.60496,3484.8866)" id="g3089">
      <g id="g3091" clip-path="url(#clipPath3093)">
        <g id="g3097" transform="matrix(1,0,0,-1,-439.827,731.488)">
          <g id="g3099">
            <g id="g3101" clip-path="url(#clipPath3103)">
              <g id="g3107" transform="matrix(0.25,0,0,-0.25,439.827,731.488)">
                <g id="g3109">
                  <g id="g3111" clip-path="url(#clipPath3113)">
                    <g id="g3117" transform="matrix(542.5976,0,0,204.6985,693.236,2512.8162)">
                      <g id="g3119">
                        <g id="g3121" clip-path="url(#clipPath3123)">
                          <g id="g3127" transform="matrix(0.001843,0,0,0.0048852,-1.2776,-12.2757)">
                            <g id="g3129">
                              <g id="g3131" clip-path="url(#clipPath3133)">
                                <g id="g3137">
                                <g id="g3139" clip-path="url(#clipPath3141)">
                                <path inkscape:connector-curvature="0" d="M 711.4684,2528.7532 C 711.4684,2531.8372 711.3245,2534.9587 711.1791,2538.0476 711.793,2537.9414 712.3666,2537.8667 712.9408,2537.8667 713.5152,2537.8667 714.0888,2537.9414 714.6989,2538.0476 714.5549,2534.9587 714.4109,2531.8372 714.4109,2528.7532 L 714.4109,2522.5771 C 714.4109,2519.4915 714.5549,2516.3682 714.6989,2513.281 714.0888,2513.3918 713.5152,2513.4619 712.9408,2513.4619 712.3666,2513.4619 711.793,2513.3918 711.1791,2513.281 711.3245,2516.3682 711.4684,2519.4915 711.4684,2522.5771 L 711.4684,2525.8079 C 708.9578,2525.8438 706.4785,2525.8811 703.9678,2525.8811 701.4549,2525.8811 698.9786,2525.8438 696.4649,2525.8079 L 696.4649,2522.5771 C 696.4649,2519.4915 696.6088,2516.3682 696.7536,2513.281 696.1427,2513.3918 695.5676,2513.4619 694.9955,2513.4619 694.4197,2513.4619 693.8469,2513.3918 693.236,2513.281 693.3792,2516.3682 693.5239,2519.4915 693.5239,2522.5771 L 693.5239,2528.7532 C 693.5239,2531.8372 693.3792,2534.9587 693.236,2538.0476 693.8469,2537.9414 694.4197,2537.8667 694.9955,2537.8667 695.5676,2537.8667 696.1427,2537.9414 696.7536,2538.0476 696.6088,2534.9587 696.4649,2531.8372 696.4649,2528.7532 L 696.4649,2527.4941 C 698.9786,2527.4583 701.4549,2527.3865 703.9678,2527.3865 706.4785,2527.3865 708.9578,2527.4583 711.4684,2527.4941 L 711.4684,2528.7532" style="fill:#1b458f;fill-opacity:1;fill-rule:nonzero;stroke:none" id="path3145" />
                                <path inkscape:connector-curvature="0" d="M 732.8582,2533.667 728.9468,2524.552 C 730.2022,2524.552 731.5672,2524.4788 732.8241,2524.4788 734.1516,2524.4788 735.5159,2524.5161 736.8444,2524.552 L 732.8582,2533.667 z M 734.042,2538.5125 C 737.5612,2530.1851 742.9427,2517.1233 744.8447,2513.281 744.201,2513.3918 743.5901,2513.4619 742.9427,2513.4619 742.2975,2513.4619 741.689,2513.3918 741.0414,2513.281 740.3604,2515.7615 738.6359,2519.7065 737.3448,2522.9031 735.8015,2522.9375 734.2211,2522.9734 732.6426,2522.9734 731.1711,2522.9734 729.7361,2522.9375 728.2659,2522.9031 726.7585,2519.2029 725.3964,2515.5447 724.7826,2513.281 724.3163,2513.3918 723.8875,2513.4619 723.4556,2513.4619 723.0261,2513.4619 722.5948,2513.3918 722.1264,2513.281 725.9669,2521.6785 729.7002,2530.04 733.3602,2538.5125 L 734.042,2538.5125" style="fill:#1b458f;fill-opacity:1;fill-rule:nonzero;stroke:none" id="path3147" />
                                <path inkscape:connector-curvature="0" d="M 770.2457,2538.0476 C 770.7112,2537.9414 771.2146,2537.8667 771.7166,2537.8667 772.0784,2537.8667 772.4707,2537.9414 772.7944,2538.0476 772.5072,2534.7075 772.2194,2528.3943 772.1478,2523.1558 772.0784,2516.7974 768.381,2512.8162 761.9193,2512.8162 754.8148,2512.8162 751.6559,2516.1172 751.6559,2523.0825 751.6559,2525.3071 751.835,2526.9575 751.835,2528.7532 751.835,2532.7014 751.691,2535.9634 751.6194,2538.0476 752.1915,2537.9414 752.912,2537.8667 753.4865,2537.8667 753.9869,2537.8667 754.5619,2537.9414 755.0282,2538.0476 754.8148,2535.9275 754.5986,2531.0479 754.5986,2525.7361 754.5986,2520.8547 754.5986,2514.5042 762.6011,2514.5042 770.4612,2514.5042 770.4612,2521.8594 770.4612,2526.3804 770.4612,2533.199 770.4612,2536.6467 770.2457,2538.0476" style="fill:#1b458f;fill-opacity:1;fill-rule:nonzero;stroke:none" id="path3149" />
                                <path inkscape:connector-curvature="0" d="M 788.2628,2528.7532 C 788.2628,2531.2273 788.2261,2533.7046 788.156,2536.1787 785.6789,2536.1787 782.4836,2536.0352 780.4763,2535.7839 780.5814,2536.1443 780.6538,2536.5376 780.6538,2536.9353 780.6538,2537.2942 780.5814,2537.6514 780.4763,2538.0476 783.5613,2537.9414 786.6478,2537.8667 789.7343,2537.8667 792.8207,2537.8667 795.905,2537.9414 798.9944,2538.0476 798.8856,2537.6514 798.814,2537.2942 798.814,2536.8979 798.814,2536.5376 798.8856,2536.1443 798.9944,2535.7839 796.9836,2536.0352 793.7905,2536.1787 791.3126,2536.1787 791.2425,2533.7046 791.2044,2531.2273 791.2044,2528.7532 L 791.2044,2522.5771 C 791.2044,2519.4915 791.3492,2516.3682 791.4932,2513.281 790.8823,2513.3918 790.3079,2513.4619 789.7343,2513.4619 789.1599,2513.4619 788.5872,2513.3918 787.9755,2513.281 788.1188,2516.3682 788.2628,2519.4915 788.2628,2522.5771 L 788.2628,2528.7532" style="fill:#1b458f;fill-opacity:1;fill-rule:nonzero;stroke:none" id="path3151" />
                                <path inkscape:connector-curvature="0" d="M 807.0824,2528.7874 C 807.0824,2531.8699 806.94,2534.9946 806.7975,2538.0476 808.9502,2537.9414 811.0677,2537.8667 813.222,2537.8667 815.3752,2537.8667 817.4914,2537.9414 819.6097,2538.0476 819.5404,2537.6887 819.5016,2537.3284 819.5016,2536.9712 819.5016,2536.6108 819.5404,2536.2537 819.6097,2535.8933 816.5963,2536.1069 814.8359,2536.3613 810.1704,2536.3613 810.1339,2534.8152 810.028,2533.561 810.028,2531.803 810.028,2529.9355 810.0631,2527.9607 810.0631,2527.0652 814.2974,2527.0652 816.6649,2527.2446 818.7848,2527.4224 818.7131,2527.0652 818.6773,2526.6689 818.6773,2526.3101 818.6773,2525.9529 818.7131,2525.5925 818.7848,2525.2336 816.3092,2525.4849 811.7867,2525.5581 810.0631,2525.5581 810.028,2524.6956 810.028,2523.7986 810.028,2520.3525 810.028,2517.6257 810.0631,2515.8674 810.0996,2514.9719 813.292,2514.9719 817.5294,2515.0049 819.7902,2515.437 819.717,2515.1108 819.6821,2514.646 819.6821,2514.3215 819.6821,2514.0002 819.717,2513.6069 819.7902,2513.281 817.6703,2513.3918 815.5176,2513.4619 813.3309,2513.4619 811.1417,2513.4619 808.9845,2513.3918 806.7975,2513.281 806.94,2516.4041 807.0824,2519.5273 807.0824,2522.613 L 807.0824,2528.7874" style="fill:#1b458f;fill-opacity:1;fill-rule:nonzero;stroke:none" id="path3153" />
                                <path inkscape:connector-curvature="0" d="M 849.8755,2533.667 845.9644,2524.552 C 847.2197,2524.552 848.5825,2524.4788 849.8412,2524.4788 851.1656,2524.4788 852.5322,2524.5161 853.8567,2524.552 L 849.8755,2533.667 z M 851.0612,2538.5125 C 854.579,2530.1851 859.9609,2517.1233 861.8626,2513.281 861.2167,2513.3918 860.6068,2513.4619 859.9609,2513.4619 859.3151,2513.4619 858.7051,2513.3918 858.0593,2513.281 857.376,2515.7615 855.6538,2519.7065 854.3621,2522.9031 852.8208,2522.9375 851.239,2522.9734 849.6603,2522.9734 848.1901,2522.9734 846.7527,2522.9375 845.2842,2522.9031 843.7751,2519.2029 842.4117,2515.5447 841.8008,2513.281 841.3339,2513.3918 840.9028,2513.4619 840.4724,2513.4619 840.0413,2513.4619 839.6109,2513.3918 839.144,2513.281 842.9846,2521.6785 846.717,2530.04 850.3763,2538.5125 L 851.0612,2538.5125" style="fill:#1b458f;fill-opacity:1;fill-rule:nonzero;stroke:none" id="path3155" />
                                <path inkscape:connector-curvature="0" d="M 887.2641,2538.0476 C 887.7305,2537.9414 888.2297,2537.8667 888.7336,2537.8667 889.0955,2537.8667 889.4886,2537.9414 889.8131,2538.0476 889.5245,2534.7075 889.2344,2528.3943 889.1657,2523.1558 889.0908,2516.7974 885.3983,2512.8162 878.9352,2512.8162 871.8279,2512.8162 868.672,2516.1172 868.672,2523.0825 868.672,2525.3071 868.853,2526.9575 868.853,2528.7532 868.853,2532.7014 868.7094,2535.9634 868.6361,2538.0476 869.2086,2537.9414 869.9262,2537.8667 870.5003,2537.8667 871.0042,2537.8667 871.5782,2537.9414 872.0447,2538.0476 871.8279,2535.9275 871.6141,2531.0479 871.6141,2525.7361 871.6141,2520.8547 871.6141,2514.5042 879.6185,2514.5042 887.4763,2514.5042 887.4763,2521.8594 887.4763,2526.3804 887.4763,2533.199 887.4763,2536.6467 887.2641,2538.0476" style="fill:#1b458f;fill-opacity:1;fill-rule:nonzero;stroke:none" id="path3157" />
                                <path inkscape:connector-curvature="0" d="M 905.2789,2528.7532 C 905.2789,2531.2273 905.2446,2533.7046 905.1729,2536.1787 902.6956,2536.1787 899.5007,2536.0352 897.493,2535.7839 897.5991,2536.1443 897.6693,2536.5376 897.6693,2536.9353 897.6693,2537.2942 897.5991,2537.6514 897.493,2538.0476 900.5787,2537.9414 903.666,2537.8667 906.7516,2537.8667 909.8373,2537.8667 912.9245,2537.9414 916.0102,2538.0476 915.9025,2537.6514 915.8292,2537.2942 915.8292,2536.8979 915.8292,2536.5376 915.9025,2536.1443 916.0102,2535.7839 914.0024,2536.0352 910.806,2536.1787 908.3287,2536.1787 908.257,2533.7046 908.2242,2531.2273 908.2242,2528.7532 L 908.2242,2522.5771 C 908.2242,2519.4915 908.3662,2516.3682 908.5097,2513.281 907.8982,2513.3918 907.3257,2513.4619 906.7516,2513.4619 906.176,2513.4619 905.5988,2513.3918 904.9935,2513.281 905.137,2516.3682 905.2789,2519.4915 905.2789,2522.5771 L 905.2789,2528.7532" style="fill:#1b458f;fill-opacity:1;fill-rule:nonzero;stroke:none" id="path3159" />
                                <path inkscape:connector-curvature="0" d="M 934.7146,2537.1848 C 929.1158,2537.1848 924.807,2533.6328 924.807,2525.6643 924.807,2517.6973 929.1158,2514.1438 934.7146,2514.1438 940.3493,2514.1438 944.6533,2517.6973 944.6533,2525.6643 944.6533,2533.6328 940.3493,2537.1848 934.7146,2537.1848 z M 934.7146,2538.5125 C 942.644,2538.5125 948.1743,2533.8137 948.1743,2525.6643 948.1743,2517.5195 942.644,2512.8162 934.7146,2512.8162 926.8163,2512.8162 921.2924,2517.5195 921.2924,2525.6643 921.2924,2533.8137 926.8163,2538.5125 934.7146,2538.5125" style="fill:#1b458f;fill-opacity:1;fill-rule:nonzero;stroke:none" id="path3161" />
                                <path inkscape:connector-curvature="0" d="M 959.8805,2526.7048 C 960.5233,2526.5645 961.35,2526.5269 962.2845,2526.5269 965.2266,2526.5269 969.1345,2527.7454 969.1345,2532.0166 969.1345,2535.7839 966.0191,2536.7168 963.5762,2536.7168 961.9225,2536.7168 960.8508,2536.6108 960.0942,2536.5376 959.9866,2533.9182 959.8805,2531.3318 959.8805,2528.7532 L 959.8805,2526.7048 z M 956.929,2528.7532 C 956.929,2531.8372 956.787,2534.9587 956.6435,2538.0476 958.007,2537.9414 959.3735,2537.8667 960.7385,2537.8667 962.1035,2537.8667 963.4716,2538.0476 964.832,2538.0476 968.8895,2538.0476 972.2981,2536.6467 972.2981,2532.3738 972.2981,2527.7454 967.668,2525.8811 964.9412,2525.5176 966.6962,2523.3337 972.6928,2515.6147 974.7739,2513.281 974.0531,2513.3918 973.3402,2513.4619 972.6179,2513.4619 971.9393,2513.4619 971.2155,2513.3918 970.5369,2513.281 969.1032,2515.4729 964.3297,2522.0747 961.2424,2525.1995 L 959.8805,2525.1995 959.8805,2522.5771 C 959.8805,2519.4915 960.0225,2516.3682 960.1628,2513.281 959.5498,2513.3918 958.9773,2513.4619 958.4032,2513.4619 957.8276,2513.4619 957.2535,2513.3918 956.6435,2513.281 956.787,2516.3682 956.929,2519.4915 956.929,2522.5771 L 956.929,2528.7532" style="fill:#1b458f;fill-opacity:1;fill-rule:nonzero;stroke:none" id="path3163" />
                                <path inkscape:connector-curvature="0" d="M 982.5879,2528.7532 C 982.5879,2531.8372 982.4412,2534.9587 982.3024,2538.0476 982.9077,2537.9414 983.4833,2537.8667 984.0558,2537.8667 984.6299,2537.8667 985.2025,2537.9414 985.8202,2538.0476 985.6704,2534.9587 985.5316,2531.8372 985.5316,2528.7532 L 985.5316,2522.5771 C 985.5316,2519.4915 985.6704,2516.3682 985.8202,2513.281 985.2025,2513.3918 984.6299,2513.4619 984.0558,2513.4619 983.4833,2513.4619 982.9077,2513.3918 982.3024,2513.281 982.4412,2516.3682 982.5879,2519.4915 982.5879,2522.5771 L 982.5879,2528.7532" style="fill:#1b458f;fill-opacity:1;fill-rule:nonzero;stroke:none" id="path3165" />
                                <path inkscape:connector-curvature="0" d="M 1000.8788,2528.7532 C 1000.8788,2531.2273 1000.8383,2533.7046 1000.7712,2536.1787 998.2955,2536.1787 995.0991,2536.0352 993.0836,2535.7839 993.1974,2536.1443 993.2708,2536.5376 993.2708,2536.9353 993.2708,2537.2942 993.1974,2537.6514 993.0836,2538.0476 996.1724,2537.9414 999.2565,2537.8667 1002.3453,2537.8667 1005.4357,2537.8667 1008.5182,2537.9414 1011.607,2538.0476 1011.504,2537.6514 1011.4291,2537.2942 1011.4291,2536.8979 1011.4291,2536.5376 1011.504,2536.1443 1011.607,2535.7839 1009.593,2536.0352 1006.4028,2536.1787 1003.9271,2536.1787 1003.8553,2533.7046 1003.8132,2531.2273 1003.8132,2528.7532 L 1003.8132,2522.5771 C 1003.8132,2519.4915 1003.9614,2516.3682 1004.108,2513.281 1003.495,2513.3918 1002.9194,2513.4619 1002.3453,2513.4619 1001.7728,2513.4619 1001.1987,2513.3918 1000.5918,2513.281 1000.7322,2516.3682 1000.8788,2519.4915 1000.8788,2522.5771 L 1000.8788,2528.7532" style="fill:#1b458f;fill-opacity:1;fill-rule:nonzero;stroke:none" id="path3167" />
                                <path inkscape:connector-curvature="0" d="M 1028.0322,2545.0442 C 1028.533,2545.5481 1029.1055,2545.9053 1029.6469,2545.9053 1030.1133,2545.9053 1030.8278,2545.5137 1030.8278,2544.7603 1030.8278,2543.8945 1030.1133,2543.4297 1029.533,2543.0693 L 1024.2601,2539.6965 1022.7532,2539.6965 1028.0322,2545.0442 z M 1019.1605,2528.7874 C 1019.1605,2531.8699 1019.0217,2534.9946 1018.875,2538.0476 1021.0309,2537.9414 1023.1447,2537.8667 1025.2991,2537.8667 1027.4565,2537.8667 1029.5735,2537.9414 1031.6967,2538.0476 1031.6202,2537.6887 1031.5797,2537.3284 1031.5797,2536.9712 1031.5797,2536.6108 1031.6202,2536.2537 1031.6967,2535.8933 1028.6797,2536.1069 1026.9183,2536.3613 1022.2509,2536.3613 1022.2119,2534.8152 1022.1042,2533.561 1022.1042,2531.803 1022.1042,2529.9355 1022.1464,2527.9607 1022.1464,2527.0652 1026.3755,2527.0652 1028.7513,2527.2446 1030.8621,2527.4224 1030.7935,2527.0652 1030.7606,2526.6689 1030.7606,2526.3101 1030.7606,2525.9529 1030.7935,2525.5925 1030.8621,2525.2336 1028.3848,2525.4849 1023.8655,2525.5581 1022.1464,2525.5581 1022.1042,2524.6956 1022.1042,2523.7986 1022.1042,2520.3525 1022.1042,2517.6257 1022.1464,2515.8674 1022.1791,2514.9719 1025.3771,2514.9719 1029.6047,2515.0049 1031.8667,2515.437 1031.7949,2515.1108 1031.7622,2514.646 1031.7622,2514.3215 1031.7622,2514.0002 1031.7949,2513.6069 1031.8667,2513.281 1029.7529,2513.3918 1027.5955,2513.4619 1025.4099,2513.4619 1023.2196,2513.4619 1021.0652,2513.3918 1018.875,2513.281 1019.0217,2516.4041 1019.1605,2519.5273 1019.1605,2522.613 L 1019.1605,2528.7874" style="fill:#1b458f;fill-opacity:1;fill-rule:nonzero;stroke:none" id="path3169" />
                                <path inkscape:connector-curvature="0" d="M 1056.9406,2522.5771 C 1056.9406,2520.0281 1057.0107,2517.4446 1057.1575,2514.9719 1058.1589,2514.7551 1060.0294,2514.6101 1061.8546,2514.6101 1067.1351,2514.6101 1072.8776,2516.6897 1072.8776,2526.1665 1072.8776,2534.4954 1068.5688,2536.5376 1062.683,2536.5376 1060.5676,2536.5376 1058.627,2536.3613 1057.1575,2536.1787 1057.0107,2533.8855 1056.9406,2531.3318 1056.9406,2528.7532 L 1056.9406,2522.5771 z M 1053.9954,2528.7532 C 1053.9954,2531.8372 1053.8549,2534.9587 1053.7098,2538.0476 1055.5023,2537.9414 1057.34,2537.8667 1059.1277,2537.8667 1060.9218,2537.8667 1062.7562,2538.0476 1064.5533,2538.0476 1072.9446,2538.0476 1076.3969,2533.561 1076.3969,2526.1665 1076.3969,2516.5852 1069.0026,2513.281 1063.3303,2513.281 1061.7173,2513.281 1060.1339,2513.4619 1058.5193,2513.4619 1056.9047,2513.4619 1055.3229,2513.3918 1053.7098,2513.281 1053.8549,2516.3682 1053.9954,2519.4915 1053.9954,2522.5771 L 1053.9954,2528.7532" style="fill:#1b458f;fill-opacity:1;fill-rule:nonzero;stroke:none" id="path3171" />
                                <path inkscape:connector-curvature="0" d="M 1084.9785,2528.7874 C 1084.9785,2531.8699 1084.838,2534.9946 1084.6884,2538.0476 1086.8442,2537.9414 1088.9596,2537.8667 1091.1124,2537.8667 1093.2667,2537.8667 1095.3805,2537.9414 1097.5037,2538.0476 1097.432,2537.6887 1097.3976,2537.3284 1097.3976,2536.9712 1097.3976,2536.6108 1097.432,2536.2537 1097.5037,2535.8933 1094.4883,2536.1069 1092.7333,2536.3613 1088.061,2536.3613 1088.0283,2534.8152 1087.9222,2533.561 1087.9222,2531.803 1087.9222,2529.9355 1087.9534,2527.9607 1087.9534,2527.0652 1092.1919,2527.0652 1094.5585,2527.2446 1096.6753,2527.4224 1096.6036,2527.0652 1096.5692,2526.6689 1096.5692,2526.3101 1096.5692,2525.9529 1096.6036,2525.5925 1096.6753,2525.2336 1094.1997,2525.4849 1089.6741,2525.5581 1087.9534,2525.5581 1087.9222,2524.6956 1087.9222,2523.7986 1087.9222,2520.3525 1087.9222,2517.6257 1087.9534,2515.8674 1087.9893,2514.9719 1091.1842,2514.9719 1095.4211,2515.0049 1097.6847,2515.437 1097.6083,2515.1108 1097.574,2514.646 1097.574,2514.3215 1097.574,2514.0002 1097.6083,2513.6069 1097.6847,2513.281 1095.5599,2513.3918 1093.4041,2513.4619 1091.2231,2513.4619 1089.0282,2513.4619 1086.8785,2513.3918 1084.6884,2513.281 1084.838,2516.4041 1084.9785,2519.5273 1084.9785,2522.613 L 1084.9785,2528.7874" style="fill:#1b458f;fill-opacity:1;fill-rule:nonzero;stroke:none" id="path3173" />
                                <path inkscape:connector-curvature="0" d="M 1119.0223,2518.0547 C 1119.8102,2516.3682 1121.6073,2514.3215 1124.6898,2514.3215 1127.8848,2514.3215 1129.8285,2516.6584 1129.8285,2519.5273 1129.8285,2526.1306 1118.5168,2523.2979 1118.5168,2531.7295 1118.5168,2535.7139 1121.5339,2538.5125 1126.3029,2538.5125 1128.568,2538.5125 1130.181,2537.9758 1131.6162,2536.8276 1131.1857,2536.0007 1130.9344,2535.1755 1130.649,2533.8137 L 1130.2216,2533.8137 C 1129.7146,2535.1382 1128.6398,2537.1848 1125.9534,2537.1848 1123.2531,2537.1848 1121.3186,2535.3535 1121.3186,2532.7358 1121.3186,2526.0247 1132.624,2528.8232 1132.624,2520.8892 1132.624,2516.5134 1129.3605,2512.8162 1123.8287,2512.8162 1120.8523,2512.8162 1119.1643,2513.8599 1117.91,2514.8582 1118.3438,2515.9736 1118.4482,2516.6897 1118.5902,2518.0547 L 1119.0223,2518.0547" style="fill:#1b458f;fill-opacity:1;fill-rule:nonzero;stroke:none" id="path3175" />
                                <path inkscape:connector-curvature="0" d="M 1149.0321,2533.667 1145.1212,2524.552 C 1146.3832,2524.552 1147.745,2524.4788 1148.9978,2524.4788 1150.3269,2524.4788 1151.6965,2524.5161 1153.021,2524.552 L 1149.0321,2533.667 z M 1150.2192,2538.5125 C 1153.7339,2530.1851 1159.119,2517.1233 1161.0253,2513.281 1160.3779,2513.3918 1159.7633,2513.4619 1159.119,2513.4619 1158.4731,2513.4619 1157.8601,2513.3918 1157.2205,2513.281 1156.5388,2515.7615 1154.8135,2519.7065 1153.5249,2522.9031 1151.9742,2522.9375 1150.4017,2522.9734 1148.8184,2522.9734 1147.3519,2522.9734 1145.9105,2522.9375 1144.4395,2522.9031 1142.9355,2519.2029 1141.5737,2515.5447 1140.9559,2513.281 1140.4879,2513.3918 1140.0636,2513.4619 1139.6284,2513.4619 1139.2025,2513.4619 1138.7688,2513.3918 1138.2993,2513.281 1142.1431,2521.6785 1145.8777,2530.04 1149.5406,2538.5125 L 1150.2192,2538.5125" style="fill:#1b458f;fill-opacity:1;fill-rule:nonzero;stroke:none" id="path3177" />
                                <path inkscape:connector-curvature="0" d="M 1188.5422,2512.8162 C 1183.0931,2519.2402 1176.5568,2526.1306 1170.4213,2532.6624 1170.3822,2531.3318 1170.312,2529.179 1170.312,2525.3757 1170.312,2522.2932 1170.4586,2514.7163 1170.6396,2513.281 1170.2386,2513.3918 1169.8113,2513.4619 1169.3792,2513.4619 1168.9502,2513.4619 1168.5165,2513.3918 1168.0485,2513.281 1168.3354,2514.9719 1168.8035,2524.1543 1168.8035,2528.895 1168.8035,2533.4175 1168.8035,2536.8979 1168.6959,2538.5125 L 1169.2699,2538.5125 C 1175.1215,2532.1602 1183.051,2523.51 1187.4283,2519.0967 1187.4283,2525.5176 1187.4283,2532.5205 1187.146,2538.0476 1187.5406,2537.9414 1187.9681,2537.8667 1188.3658,2537.8667 1188.7574,2537.8667 1189.1163,2537.9414 1189.5172,2538.0476 1189.2957,2535.9275 1188.9431,2528.8232 1188.9431,2526.0247 1188.9431,2522.3633 1189.0179,2514.4324 1189.0492,2512.8162 L 1188.5422,2512.8162" style="fill:#1b458f;fill-opacity:1;fill-rule:nonzero;stroke:none" id="path3179" />
                                <path inkscape:connector-curvature="0" d="M 1204.7053,2528.7532 C 1204.7053,2531.2273 1204.6726,2533.7046 1204.6008,2536.1787 1202.1235,2536.1787 1198.9271,2536.0352 1196.9178,2535.7839 1197.0254,2536.1443 1197.0973,2536.5376 1197.0973,2536.9353 1197.0973,2537.2942 1197.0254,2537.6514 1196.9178,2538.0476 1200.0066,2537.9414 1203.0892,2537.8667 1206.1796,2537.8667 1209.2621,2537.8667 1212.354,2537.9414 1215.4351,2538.0476 1215.329,2537.6514 1215.2634,2537.2942 1215.2634,2536.8979 1215.2634,2536.5376 1215.329,2536.1443 1215.4351,2535.7839 1213.4258,2536.0352 1210.2294,2536.1787 1207.7567,2536.1787 1207.6865,2533.7046 1207.6475,2531.2273 1207.6475,2528.7532 L 1207.6475,2522.5771 C 1207.6475,2519.4915 1207.7958,2516.3682 1207.9346,2513.281 1207.3276,2513.3918 1206.7537,2513.4619 1206.1796,2513.4619 1205.5992,2513.4619 1205.033,2513.3918 1204.4167,2513.281 1204.5649,2516.3682 1204.7053,2519.4915 1204.7053,2522.5771 L 1204.7053,2528.7532" style="fill:#1b458f;fill-opacity:1;fill-rule:nonzero;stroke:none" id="path3181" />
                                <path inkscape:connector-curvature="0" d="M 1231.9897,2545.0442 C 1232.4999,2545.5481 1233.0708,2545.9053 1233.6044,2545.9053 1234.0708,2545.9053 1234.7915,2545.5137 1234.7915,2544.7603 1234.7915,2543.8945 1234.0708,2543.4297 1233.4999,2543.0693 L 1228.2271,2539.6965 1226.7201,2539.6965 1231.9897,2545.0442 z M 1223.1289,2528.7874 C 1223.1289,2531.8699 1222.9807,2534.9946 1222.8403,2538.0476 1224.9932,2537.9414 1227.11,2537.8667 1229.266,2537.8667 1231.4156,2537.8667 1233.5388,2537.9414 1235.6526,2538.0476 1235.5809,2537.6887 1235.5481,2537.3284 1235.5481,2536.9712 1235.5481,2536.6108 1235.5809,2536.2537 1235.6526,2535.8933 1232.6387,2536.1069 1230.8774,2536.3613 1226.21,2536.3613 1226.1787,2534.8152 1226.0726,2533.561 1226.0726,2531.803 1226.0726,2529.9355 1226.1039,2527.9607 1226.1039,2527.0652 1230.3439,2527.0652 1232.7089,2527.2446 1234.8274,2527.4224 1234.754,2527.0652 1234.7181,2526.6689 1234.7181,2526.3101 1234.7181,2525.9529 1234.754,2525.5925 1234.8274,2525.2336 1232.3485,2525.4849 1227.8339,2525.5581 1226.1039,2525.5581 1226.0726,2524.6956 1226.0726,2523.7986 1226.0726,2520.3525 1226.0726,2517.6257 1226.1039,2515.8674 1226.1444,2514.9719 1229.3331,2514.9719 1233.5715,2515.0049 1235.8336,2515.437 1235.7603,2515.1108 1235.7275,2514.646 1235.7275,2514.3215 1235.7275,2514.0002 1235.7603,2513.6069 1235.8336,2513.281 1233.7183,2513.3918 1231.5623,2513.4619 1229.3767,2513.4619 1227.1803,2513.4619 1225.0306,2513.3918 1222.8403,2513.281 1222.9807,2516.4041 1223.1289,2519.5273 1223.1289,2522.613 L 1223.1289,2528.7874" style="fill:#1b458f;fill-opacity:1;fill-rule:nonzero;stroke:none" id="path3183" />
                                <path inkscape:connector-curvature="0" d="M 884.6745,2684.8682 C 884.4655,2690.5979 884.2455,2696.4385 884.0068,2702.3999 L 897.287,2702.3999 C 896.986,2696.4495 896.7052,2690.5925 896.4556,2684.8682 896.2044,2679.1401 896.2044,2632.2754 896.4556,2626.5029 896.7052,2620.7307 896.986,2615.0376 897.287,2609.4519 L 884.0068,2609.4519 C 884.2455,2615.0459 884.4655,2620.7239 884.6745,2626.5029 884.8695,2632.2761 884.7026,2656.2883 884.7026,2656.2883 879.8167,2656.3677 833.386,2656.3677 828.5042,2656.2883 828.5042,2656.2883 828.3596,2632.2761 828.6132,2626.5029 828.8653,2620.7239 829.1418,2615.0459 829.4442,2609.4519 L 816.1667,2609.4519 C 816.4067,2615.0376 816.626,2620.7307 816.8264,2626.5029 817.0298,2632.2754 817.0298,2679.1401 816.8264,2684.8682 816.626,2690.5925 816.4067,2696.4495 816.1667,2702.3999 L 829.4442,2702.3999 C 829.1418,2696.4385 828.8653,2690.5979 828.6132,2684.8682 828.3596,2679.1294 828.5042,2662.5649 828.5042,2662.5649 833.386,2662.4539 879.8167,2662.4539 884.7026,2662.5649 884.7026,2662.5649 884.8695,2679.1294 884.6745,2684.8682" style="fill:#1b458f;fill-opacity:1;fill-rule:nonzero;stroke:none" id="path3185" />
                                <path inkscape:connector-curvature="0" d="M 1096.7034,2622.855 C 1102.7562,2623.7144 1107.9667,2625.0762 1110.6155,2626.394 1112.4032,2629.9231 1113.2566,2633.7126 1113.2566,2637.7009 1113.2566,2667.6465 1058.0934,2657.0776 1058.0934,2682.4155 1058.0934,2692.3086 1067.5486,2698.6833 1080.6791,2698.6833 1092.7706,2698.6833 1101.009,2691.5469 1103.4629,2686.5317 L 1108.3535,2697.863 C 1101.3459,2702.1973 1093.4664,2704.2295 1082.4325,2704.2295 1059.1401,2704.2295 1044.4325,2693.6614 1044.4325,2678.6213 1044.4325,2646.7798 1099.5988,2657.4851 1099.5988,2632.5525 1099.5988,2629.0029 1098.6191,2625.7314 1096.7034,2622.855" style="fill:#1b458f;fill-opacity:1;fill-rule:nonzero;stroke:none" id="path3187" />
                                <path inkscape:connector-curvature="0" d="M 1010.7349,2583.1978 1032.3752,2583.1978 C 1030.313,2586.5493 1023.2462,2601.2429 1021.7173,2604.7026 L 1000.2377,2609.5227 C 1001.6854,2606.5559 1008.0518,2591.3145 1010.7349,2583.1978" style="fill:#1b458f;fill-opacity:1;fill-rule:nonzero;stroke:none" id="path3189" />
                                <path inkscape:connector-curvature="0" d="M 1008.0986,2634.5955 C 1006.0846,2638.9746 971.451,2717.5146 971.451,2717.5146 L 966.5074,2717.5146 C 966.5074,2717.5146 914.1398,2605.5815 903.1152,2583.1978 L 918.2254,2583.1978 C 925.5387,2607.3611 945.0309,2647.8616 964.183,2691.3694 964.183,2691.3694 979.4523,2656.7119 988.5221,2636.1279 995.1942,2636.1279 1001.6854,2635.5378 1008.0986,2634.5955" style="fill:#1b458f;fill-opacity:1;fill-rule:nonzero;stroke:none" id="path3191" />
                                <path inkscape:connector-curvature="0" d="M 935.2528,2612.6946 C 943.9763,2623.2336 956.8182,2636.1279 988.5221,2636.1279 1021.1511,2636.1279 1049.5275,2621.9685 1084.59,2621.9685 1095.1013,2621.9685 1106.2787,2624.2407 1110.6155,2626.394 1103.516,2613.2993 1087.5212,2607.2559 1067.9402,2607.2559 1037.3938,2607.2559 1001.4514,2620.9805 972.4728,2620.9805 958.4484,2620.9805 945.6783,2618.4905 935.2528,2612.6946" style="fill:#e51b24;fill-opacity:1;fill-rule:nonzero;stroke:none" id="path3193" />
                                </g>
                                </g>
                              </g>
                            </g>
                          </g>
                        </g>
                      </g>
                    </g>
                  </g>
                </g>
              </g>
            </g>
          </g>
        </g>
      </g>
    </g>
  </g>
</svg>
